<?xml version="1.0" encoding="UTF-8"?>
<svg width="502px" height="429px" viewBox="0 0 502 429" version="1.1" xmlns="http://www.w3.org/2000/svg" xmlns:xlink="http://www.w3.org/1999/xlink">
    <!-- Generator: sketchtool 51.3 (57544) - http://www.bohemiancoding.com/sketch -->
    <title>816AF0C4-60A7-47C7-9B5E-D8A73CEE4CAC</title>
    <desc>Created with sketchtool.</desc>
    <defs>
        <linearGradient x1="49.010293%" y1="16.2845279%" x2="61.2034838%" y2="64.7048204%" id="linearGradient-1">
            <stop stop-color="#241084" offset="0%"></stop>
            <stop stop-color="#0A5DE2" offset="99%"></stop>
        </linearGradient>
        <linearGradient x1="58.0018501%" y1="28.9839798%" x2="17.5763182%" y2="85.6661046%" id="linearGradient-2">
            <stop stop-color="#241084" offset="0%"></stop>
            <stop stop-color="#0A5DE2" offset="99%"></stop>
        </linearGradient>
        <linearGradient x1="71.4146341%" y1="34.7206599%" x2="-12.2926829%" y2="115.185602%" id="linearGradient-3">
            <stop stop-color="#241084" stop-opacity="0.8" offset="0%"></stop>
            <stop stop-color="#0A5DE2" stop-opacity="0" offset="99%"></stop>
        </linearGradient>
    </defs>
    <g id="On-Progress" stroke="none" stroke-width="1" fill="none" fill-rule="evenodd">
        <g id="Desktop---On-Progress" transform="translate(-679.000000, -185.000000)">
            <g id="Asset-1" transform="translate(680.000000, 185.000000)">
                <polygon id="Shape" fill="#F4F4F4" fill-rule="nonzero" points="54.380117 293.690396 52.9954381 305.346875 44.7880686 326.67093 52.3030987 328.98712 58.0809861 306.744142 58.8362655 294.206503"></polygon>
                <polygon id="Shape" fill="url(#linearGradient-1)" fill-rule="nonzero" points="36.8198709 350.072003 40.495564 387.181398 39.274529 419.79688 51.912871 419.79688 52.5926224 417.367398 43.9194973 416.221891 48.5392896 387.332454 52.7185023 351.418918"></polygon>
                <polygon id="Shape" fill="#243174" fill-rule="nonzero" points="32.6406582 349.6566 29.7705965 381.265043 10.4228558 406.969718 12.7264579 419.104541 18.5043454 419.104541 15.0426481 416.511415 14.4636006 408.706861 32.955358 387.911501 49.6973847 350.651051"></polygon>
                <polygon id="Shape" fill="#E67437" fill-rule="nonzero" points="58.8362655 294.206503 58.6096817 282.449321 56.2431395 282.159797 54.380117 293.690396"></polygon>
                <path d="M35.8505957,310.495363 C34.9820244,314.762691 34.9316724,321.295858 41.3515473,322.328073 C43.7944685,322.866642 46.3513495,322.398614 48.4450989,321.029624 C50.5388483,319.660634 51.9929929,317.506068 52.4793305,315.052215 C53.4108418,310.797474 51.837343,305.309111 45.2538242,304.465715 C40.9235557,303.899256 36.5051711,307.071429 35.8505957,310.495363 Z" id="Shape" fill="#E67437" fill-rule="nonzero"></path>
                <path d="M40.4578,322.038549 C35.8883596,320.77975 34.163805,316.386542 34.8057925,311.968157 C35.1748997,309.579686 36.4916669,307.441011 38.4581569,306.036036 C40.4246469,304.631062 42.8746521,304.078538 45.2538242,304.503479 C45.503024,304.564157 45.7471277,304.644122 45.9839277,304.742651 C46.0804314,305.370272 46.0330839,306.011616 45.8454598,306.618262 C45.0505691,308.774897 43.3034553,310.443019 41.1123755,311.13735 C41.1123755,311.13735 39.7654606,320.653871 40.4578,322.038549 Z" id="Shape" fill="#1F1F89" fill-rule="nonzero"></path>
                <path d="M39.9291044,311.82969 C39.2753297,311.745309 38.6119362,311.877988 38.0409059,312.207329 C36.1904714,313.214368 36.7821069,315.983726 38.4688976,316.877474 C39.0089636,317.142876 39.5938375,317.305104 40.1934522,317.355817 C40.7095909,317.43466 41.2374743,317.351078 41.704011,317.116645 C42.1339721,316.827583 42.4219535,316.37047 42.4970544,315.857846 C42.5970805,315.363532 42.5970805,314.85419 42.4970544,314.359876 C42.1824164,313.102145 41.1913575,312.125661 39.9291044,311.82969 Z" id="Shape" fill="#E67437" fill-rule="nonzero"></path>
                <path d="M46.9532029,309.236564 C47.2966359,310.665921 48.709672,311.567149 50.1505524,311.275818 C51.2757803,310.440338 51.7129198,308.961447 51.222744,307.648476 C50.7325682,306.335505 49.4332181,305.504904 48.03577,305.611222 C46.7609499,306.333703 46.2832747,307.933359 46.9532029,309.236564 Z" id="Shape" fill="#F7F5EF" fill-rule="nonzero"></path>
                <path d="M54.9088126,280.82547 C54.8934902,281.908145 55.533882,282.892763 56.5297783,283.317745 C57.5256746,283.742727 58.6796487,283.523824 59.4507283,282.763656 C60.2218078,282.003488 60.4571338,280.85275 60.0463876,279.850899 C59.6356414,278.849047 58.6602495,278.194689 57.5774665,278.19458 C56.1154339,278.187585 54.9226542,279.363486 54.9088126,280.82547 Z" id="Shape" fill="#8E574A" fill-rule="nonzero"></path>
                <path d="M67.4086867,298.662652 L63.3679419,299.996979 C61.7321848,304.761031 58.9982281,309.073266 55.3871562,312.584969 L47.8343622,319.923767 L38.5318375,326.217762 L31.621031,351.84691 L53.2346099,353.886164 L53.9521254,325.651303 L61.970675,315.580911 C65.2697424,311.456759 67.5046226,306.584979 68.4786659,301.394246 L67.4086867,298.662652 Z" id="Shape" fill="#F7F5EF" fill-rule="nonzero"></path>
                <rect id="Rectangle-path" fill="#F7F5EF" fill-rule="nonzero" x="38.2171378" y="234.778602" width="48.7532855" height="48.7532855" rx="7.4"></rect>
                <path d="M68.2017301,282.600377 C68.2017301,284.067281 69.3908913,285.256443 70.857796,285.256443 C72.3247007,285.256443 73.5138619,284.067281 73.5138619,282.600377 C73.5138619,281.133472 72.3247007,279.944311 70.857796,279.944311 C69.3908913,279.944311 68.2017301,281.133472 68.2017301,282.600377 Z" id="Shape" fill="#E67437" fill-rule="nonzero"></path>
                <polygon id="Shape" fill="#E67437" fill-rule="nonzero" points="62.9525382 301.406834 68.26467 303.295032 72.5319987 283.821412 69.4857051 283.129072"></polygon>
                <path d="M74.3950212,253.0186 C74.3950212,259.853879 62.033615,277.980584 62.033615,277.980584 C62.033615,277.980584 49.6722087,259.853879 49.6722087,253.0186 C49.6722089,246.191584 55.206599,240.657194 62.033615,240.657194 C68.860631,240.657194 74.395021,246.191584 74.3950212,253.0186 Z" id="Shape" fill="#E67437" fill-rule="nonzero"></path>
                <path d="M67.9751463,252.036737 C67.9751463,255.311202 65.3206679,257.96568 62.046203,257.96568 C58.771738,257.96568 56.1172596,255.311202 56.1172596,252.036737 C56.1172596,248.762272 58.771738,246.107793 62.046203,246.107793 C63.6196815,246.104442 65.1296795,246.728021 66.2422993,247.84064 C67.3549192,248.95326 67.9784977,250.463258 67.9751463,252.036737 Z" id="Shape" fill="#F7F5EF" fill-rule="nonzero"></path>
                <path d="M0,419.557708 L95.6687244,419.557708" id="Shape" stroke="#0A5DE2" stroke-width="2" opacity="0.5" stroke-linecap="round"></path>
                <rect id="Rectangle-path" fill="#F7F5EF" fill-rule="nonzero" x="183.054551" y="58.2823939" width="127.340107" height="274.418183" rx="8.59"></rect>
                <path d="M299.594163,58.2823939 L193.855047,58.2823939 C187.886021,58.2893306 183.0489,63.1264519 183.041963,69.0954774 L183.041963,80.0470287 L310.394659,80.0470287 L310.394659,69.0954774 C310.38774,63.1313563 305.558272,58.29626 299.594163,58.2823939 Z" id="Shape" fill="#243174" fill-rule="nonzero"></path>
                <path d="M183.054551,308.103644 L183.054551,321.950434 C183.089137,327.892834 187.91255,332.69376 193.855047,332.700577 L299.594163,332.700577 C305.566064,332.700577 310.407247,327.859395 310.407247,321.887494 L310.407247,308.040705 L183.054551,308.103644 Z" id="Shape" fill="#243174" fill-rule="nonzero"></path>
                <rect id="Rectangle-path" fill="#E67437" fill-rule="nonzero" x="250.95417" y="87.4991188" width="48.7532855" height="48.7532855" rx="7.4"></rect>
                <rect id="Rectangle-path" fill="#AFC6F5" fill-rule="nonzero" x="250.95417" y="235.433178" width="48.7532855" height="48.7532855" rx="7.4"></rect>
                <rect id="Rectangle-path" fill="#E67437" fill-rule="nonzero" x="193.364115" y="235.433178" width="48.7532855" height="48.7532855" rx="7.4"></rect>
                <path d="M182.538444,333.946788 L319.747535,333.946788" id="Shape" stroke="#0A5DE2" stroke-width="2" opacity="0.5" stroke-linecap="round"></path>
                <rect id="Rectangle-path" fill="#1F1F89" fill-rule="nonzero" transform="translate(350.533648, 288.951940) rotate(-9.440000) translate(-350.533648, -288.951940) " x="349.904248" y="237.983168" width="1.25879901" height="101.937543"></rect>
                <rect id="Rectangle-path" fill="#1F1F89" fill-rule="nonzero" transform="translate(319.844325, 288.950276) rotate(-9.440000) translate(-319.844325, -288.950276) " x="319.214925" y="237.981504" width="1.25879901" height="101.937543"></rect>
                <rect id="Rectangle-path" fill="#1F1F89" fill-rule="nonzero" x="315.039627" y="259.425887" width="30.9664555" height="1.25879901"></rect>
                <rect id="Rectangle-path" fill="#1F1F89" fill-rule="nonzero" x="317.229937" y="272.857272" width="30.9664555" height="1.25879901"></rect>
                <rect id="Rectangle-path" fill="#1F1F89" fill-rule="nonzero" x="319.420248" y="286.27607" width="30.9664555" height="1.25879901"></rect>
                <rect id="Rectangle-path" fill="#1F1F89" fill-rule="nonzero" x="321.623146" y="299.707455" width="30.9664555" height="1.25879901"></rect>
                <rect id="Rectangle-path" fill="#1F1F89" fill-rule="nonzero" x="323.813456" y="313.13884" width="30.9664555" height="1.25879901"></rect>
                <rect id="Rectangle-path" fill="#1F1F89" fill-rule="nonzero" x="326.003766" y="326.557638" width="30.9664555" height="1.25879901"></rect>
                <rect id="Rectangle-path" fill="#243174" fill-rule="nonzero" transform="translate(302.202312, 288.939613) rotate(-80.560000) translate(-302.202312, -288.939613) " x="251.23354" y="288.310213" width="101.937543" height="1.25879901"></rect>
                <rect id="Rectangle-path" fill="#243174" fill-rule="nonzero" transform="translate(332.914246, 288.986543) rotate(-80.550000) translate(-332.914246, -288.986543) " x="281.945475" y="288.357144" width="101.937543" height="1.25879901"></rect>
                <rect id="Rectangle-path" fill="#243174" fill-rule="nonzero" x="306.731554" y="259.425887" width="30.9664555" height="1.25879901"></rect>
                <rect id="Rectangle-path" fill="#243174" fill-rule="nonzero" x="304.541243" y="272.857272" width="30.9664555" height="1.25879901"></rect>
                <rect id="Rectangle-path" fill="#243174" fill-rule="nonzero" x="302.350933" y="286.27607" width="30.9664555" height="1.25879901"></rect>
                <rect id="Rectangle-path" fill="#243174" fill-rule="nonzero" x="300.160623" y="299.707455" width="30.9664555" height="1.25879901"></rect>
                <rect id="Rectangle-path" fill="#243174" fill-rule="nonzero" x="297.970312" y="313.13884" width="30.9664555" height="1.25879901"></rect>
                <rect id="Rectangle-path" fill="#243174" fill-rule="nonzero" x="295.767414" y="326.557638" width="30.9664555" height="1.25879901"></rect>
                <rect id="Rectangle-path" fill="#243174" fill-rule="nonzero" x="308.065881" y="237.119969" width="37.7639702" height="3.77639702"></rect>
                <polygon id="Shape" fill="#F7F5EF" fill-rule="nonzero" points="378.797797 220.151358 375.096928 182.135628 370.351255 141.463832 374.039536 140.935137 382.498666 179.49215 395.690879 180.549541 409.424376 141.463832 413.125245 141.992528 403.092617 183.721715 403.621313 219.106555"></polygon>
                <path d="M383.493117,168.213311 C382.498666,171.85124 384.072164,177.704656 387.710094,178.699107 C391.348023,179.693558 395.690879,175.463993 396.697918,171.826064 C397.572852,168.225362 395.424924,164.581893 391.850801,163.604035 C388.276678,162.626177 384.573095,164.668708 383.493117,168.213311 Z" id="Shape" fill="#F76D59" fill-rule="nonzero"></path>
                <path d="M388.364669,166.161469 C387.495052,165.963422 386.723594,165.46398 386.186947,164.751614 C386.152407,164.691217 386.122934,164.628061 386.098831,164.562794 C388.443051,162.851778 391.613129,162.811039 394.000544,164.461248 C396.38796,166.111457 397.470116,169.091388 396.697918,171.889004 C395.774065,174.790068 393.679091,177.172587 390.920031,178.459935 C390.99026,177.722658 391.129335,176.993572 391.335435,176.282213 C392.090714,173.399563 392.921521,170.542089 393.853033,167.709791 C391.985798,167.33844 390.15068,166.820735 388.364669,166.161469 Z" id="Shape" fill="#243174" fill-rule="nonzero"></path>
                <path d="M392.61941,171.675008 C393.109825,171.284448 393.769007,171.179361 394.356552,171.398073 C394.487978,171.449333 394.607819,171.526373 394.709016,171.624656 C394.974814,171.912849 395.091161,172.30843 395.023716,172.694636 C394.87574,173.773775 394.098033,174.660461 393.047401,174.947886 C392.767069,175.056021 392.463744,175.090687 392.166242,175.04859 C391.861587,175.010566 391.584946,174.851838 391.398375,174.60801 C390.768975,173.714263 391.914482,172.191116 392.61941,171.675008 Z" id="Shape" fill="#F76D59" fill-rule="nonzero"></path>
                <polygon id="Shape" fill="#243174" fill-rule="nonzero" points="403.621313 219.106555 399.958208 277.426713 395.917463 277.426713 392.49353 219.57231 388.893365 219.723366 386.690466 278.849156 383.568645 278.773628 378.797797 220.151358 378.092869 212.93844 403.533197 213.265727"></polygon>
                <polygon id="Shape" fill="#3878FF" fill-rule="nonzero" points="399.958208 277.426713 408.820153 278.395988 408.505453 279.780667 395.514647 279.780667 395.917463 277.426713"></polygon>
                <polygon id="Shape" fill="#3878FF" fill-rule="nonzero" points="386.690466 278.849156 386.690466 280.51077 374.505292 280.963938 374.505292 279.440791 383.568645 278.773628"></polygon>
                <path d="M390.038872,173.147803 C387.810797,173.386975 386.048479,171.158901 383.832993,170.869377 C383.697155,170.831211 383.553427,170.831211 383.417589,170.869377 C383.262692,170.967827 383.143541,171.113456 383.077713,171.284781 L382.234318,172.921219 C381.928484,173.46746 381.695714,174.051502 381.541978,174.658362 C381.396124,176.000349 381.581993,177.357622 382.083262,178.610991 C382.593461,179.561505 383.442855,180.285063 384.462392,180.637657 C385.47554,180.972303 386.549062,181.083949 387.60939,180.964945 C388.337527,180.925055 389.051207,180.745567 389.711584,180.436249 C391.171751,179.661142 391.995313,178.059212 391.776014,176.420681 C391.679669,176.033761 391.633136,175.63612 391.637546,175.237409 C391.707071,174.855674 391.852617,174.491807 392.065538,174.16743 C392.279534,173.777203 393.752329,171.863828 392.606822,171.85124 C392.254358,171.85124 391.750838,172.442876 391.448727,172.619108 C391.021812,172.893778 390.541125,173.074036 390.038872,173.147803 Z" id="Shape" fill="#243174" fill-rule="nonzero"></path>
                <g id="Group" opacity="0.4" transform="translate(370.086907, 139.726690)" fill="#AFC6F5" fill-rule="nonzero">
                    <polygon id="Shape" points="34.6043846 15.206292 39.9291044 15.206292 43.038338 2.26583821 39.3374689 1.73714263"></polygon>
                    <polygon id="Shape" points="3.95262888 1.20844704 0.264347791 1.73714263 1.83784655 15.206292 7.02409845 15.206292"></polygon>
                </g>
                <rect id="Rectangle-path" fill="#243174" fill-rule="nonzero" x="330.296271" y="99.8227611" width="145.001057" height="40.2060402" rx="8.69"></rect>
                <rect id="Rectangle-path" fill="#F7F5EF" fill-rule="nonzero" x="326.658342" y="99.8227611" width="145.001057" height="40.2060402" rx="8.69"></rect>
                <path d="M462.482754,130.738865 L456.578987,124.621101 C459.627372,121.009425 459.753999,115.763765 456.88343,112.009208 C454.012861,108.254652 448.917515,107.001483 444.63293,108.996274 C440.348344,110.991064 438.027425,115.697052 439.052853,120.310657 C440.078281,124.924263 444.174131,128.204048 448.900313,128.196091 C450.956024,128.20606 452.963276,127.572191 454.640437,126.38342 L460.594556,132.576711 C460.837733,132.839017 461.181018,132.985486 461.538655,132.979527 C461.877596,132.98484 462.204355,132.853229 462.44499,132.614475 C462.70331,132.376165 462.850239,132.040713 462.850239,131.689258 C462.850239,131.337803 462.70331,131.002351 462.44499,130.764041 L462.482754,130.738865 Z M448.900313,110.774312 C452.995132,110.774312 456.314639,114.093819 456.314639,118.188639 C456.314639,122.283458 452.995132,125.602965 448.900313,125.602965 C444.805494,125.602965 441.485987,122.283458 441.485987,118.188639 C441.485987,116.222237 442.267137,114.336374 443.657593,112.945918 C445.048049,111.555462 446.933912,110.774312 448.900313,110.774312 Z" id="Shape" fill="#AFC6F5" fill-rule="nonzero"></path>
                <path d="M338.616932,281.089818 L469.532029,281.089818" id="Shape" stroke="#243174" stroke-width="2" opacity="0.5" stroke-linecap="round"></path>
                <path d="M374.89552,139.34905 C374.900616,140.633208 374.13098,141.793755 372.946032,142.288716 C371.761085,142.783677 370.394617,142.515395 369.48477,141.609158 C368.574922,140.702921 368.30121,139.337531 368.791455,138.150625 C369.2817,136.963719 370.439178,136.189474 371.723346,136.189464 C373.470385,136.189451 374.888587,137.602025 374.89552,139.34905 Z" id="Shape" fill="#E67437" fill-rule="nonzero"></path>
                <path d="M413.150421,140.255385 C413.150411,141.539553 412.376167,142.697031 411.189261,143.187276 C410.002355,143.677522 408.636964,143.403809 407.730728,142.493962 C406.824491,141.584115 406.556209,140.217647 407.05117,139.032699 C407.546131,137.847752 408.706678,137.078116 409.990836,137.083212 C410.830996,137.083205 411.636562,137.417816 412.229463,138.013079 C412.822363,138.608341 413.153769,139.415232 413.150421,140.255385 Z" id="Shape" fill="#E67437" fill-rule="nonzero"></path>
                <path d="M258.65802,149.55791 C259.166441,150.869378 258.833948,152.358002 257.815835,153.32851 C256.797722,154.299019 255.294894,154.5599 254.009256,153.989308 C252.723618,153.418716 251.908866,152.129245 251.945537,150.723153 C251.982207,149.317061 252.863063,148.071811 254.176695,147.569007 C255.963286,146.885174 257.966547,147.774262 258.65802,149.55791 Z" id="Shape" fill="#AFC6F5" fill-rule="nonzero"></path>
                <rect id="Rectangle-path" fill="#243174" fill-rule="nonzero" transform="translate(229.130797, 155.875047) rotate(-80.040000) translate(-229.130797, -155.875047) " x="204.754154" y="131.498404" width="48.7532855" height="48.7532855" rx="7.4"></rect>
                <path d="M104.593609,302.690809 L126.408596,302.690809 C126.910714,302.692557 127.365846,302.395732 127.566691,301.935529 C127.764696,301.475155 127.670756,300.941183 127.327519,300.576026 L106.355928,277.917644 L104.480317,279.629611 L123.50077,300.173211 L104.618785,300.173211 L104.593609,302.690809 Z" id="Shape" fill="#243174" fill-rule="nonzero"></path>
                <polygon id="Shape" fill="#D64536" fill-rule="nonzero" points="257.864976 149.935549 267.230441 153.598655 294.458263 156.179193 285.369734 162.586479 266.23599 157.991863 256.455121 153.510539"></polygon>
                <path d="M290.78257,145.806689 C292.290109,149.747809 290.317595,154.164857 286.37665,155.672856 C282.435706,157.180855 278.018428,155.208856 276.509969,151.268087 C275.00151,147.327319 276.972993,142.909811 280.913586,141.400892 C282.806514,140.676058 284.909881,140.733059 286.760774,141.559351 C288.611667,142.385642 290.058399,143.913507 290.78257,145.806689 Z" id="Shape" fill="#AFC6F5" fill-rule="nonzero"></path>
                <polygon id="Shape" fill="url(#linearGradient-2)" fill-rule="nonzero" points="319.357308 177.389956 316.222898 209.174631 317.267701 237.107381 306.44203 237.107381 305.850394 235.030362 313.277308 234.035911 309.32468 209.300511 305.74969 178.535463"></polygon>
                <path d="M253.509532,153.233603 C257.499924,154.857454 270.893546,158.419855 275.18605,158.079979 L284.173875,157.349876 L293.463812,154.832278 L313.881532,164.90267 L303.005509,180.008258 L284.400459,164.537618 L273.411144,164.046686 C268.892055,163.845278 256.077482,159.01149 252.187793,156.657536 L253.509532,153.233603 Z" id="Shape" fill="#E67437" fill-rule="nonzero"></path>
                <path d="M291.940665,143.85555 C290.354579,140.255385 283.95988,139.386814 280.410066,141.061017 C280.196071,141.16172 280.007251,141.300188 279.805843,141.41348 C279.856757,141.988295 280.02833,142.54591 280.309362,143.049919 C281.438631,144.770768 283.294068,145.879392 285.344558,146.058449 C285.344558,146.058449 285.495614,146.448676 285.722198,147.065488 C285.939519,146.803559 286.215528,146.596553 286.52783,146.461264 C287.09145,146.272238 287.701351,146.272238 288.264972,146.461264 C290.102819,146.977372 290.090231,149.55791 288.831432,150.653065 C288.412695,151.000519 287.929227,151.261507 287.408989,151.420932 L287.220169,151.420932 C287.056525,153.93853 287.220169,154.177702 287.748865,154.94557 C290.681866,152.818199 294.04286,148.601223 291.940665,143.85555 Z" id="Shape" fill="#1F1F89" fill-rule="nonzero"></path>
                <polygon id="Shape" fill="#243174" fill-rule="nonzero" points="352.677717 173.172979 334.425132 181.128589 313.378012 164.96561 302.590105 179.756498 334.399956 189.524778 353.231589 176.899024 357.23457 181.367761 358.594073 180.05861"></polygon>
                <path d="M254.629863,153.120311 C255.133606,154.432878 254.796645,155.919661 253.776233,156.886797 C252.755822,157.853932 251.253122,158.110761 249.969426,157.537425 C248.68573,156.964089 247.874102,155.673613 247.913319,154.268248 C247.952536,152.862882 248.834867,151.619677 250.148538,151.118821 C251.938441,150.443756 253.93802,151.336826 254.629863,153.120311 Z" id="Shape" fill="#AFC6F5" fill-rule="nonzero"></path>
                <path d="M103.46069,65.3190804 L128.095387,65.3190804 L128.095387,312.887081 L103.46069,312.887081 L103.46069,65.3190804 Z M125.577789,67.8366784 L105.978288,67.8366784 L105.978288,310.369483 L125.577789,310.369483 L125.577789,67.8366784 Z" id="Shape" fill="#243174" fill-rule="nonzero"></path>
                <rect id="Rectangle-path" fill="#F7F5EF" fill-rule="nonzero" transform="translate(115.784332, 310.873002) rotate(180.000000) translate(-115.784332, -310.873002) " x="100.099697" y="299.631927" width="31.3692712" height="22.4821502"></rect>
                <path d="M104.593609,209.652974 L126.408596,209.652974 C126.910714,209.654723 127.365846,209.357898 127.566691,208.897695 C127.764696,208.43732 127.670756,207.903348 127.327519,207.538192 L106.355928,184.87981 L104.480317,186.591777 L123.50077,207.135376 L104.618785,207.135376 L104.593609,209.652974 Z" id="Shape" fill="#243174" fill-rule="nonzero"></path>
                <path d="M104.593609,232.877816 L126.408596,232.877816 C126.908389,232.876213 127.359893,232.579079 127.559075,232.120688 C127.758256,231.662297 127.667383,231.129487 127.327519,230.763034 L106.355928,208.104652 L104.480317,209.854382 L123.525946,230.360218 L104.643961,230.360218 L104.593609,232.877816 Z" id="Shape" fill="#243174" fill-rule="nonzero"></path>
                <path d="M104.593609,256.178186 L126.408596,256.178186 C126.908389,256.176583 127.359893,255.879448 127.559075,255.421058 C127.758256,254.962667 127.667383,254.429857 127.327519,254.063403 L106.355928,231.405021 L104.480317,233.116988 L123.50077,253.660588 L104.618785,253.660588 L104.593609,256.178186 Z" id="Shape" fill="#243174" fill-rule="nonzero"></path>
                <path d="M104.593609,279.453379 L126.408596,279.453379 C126.910714,279.455128 127.365846,279.158302 127.566691,278.6981 C127.764696,278.237725 127.670756,277.703753 127.327519,277.338597 L106.355928,254.680215 L104.480317,256.367005 L123.525946,276.935781 L104.643961,276.935781 L104.593609,279.453379 Z" id="Shape" fill="#243174" fill-rule="nonzero"></path>
                <path d="M104.593609,186.956828 L126.408596,186.956828 C126.908389,186.955225 127.359893,186.658091 127.559075,186.1997 C127.758256,185.74131 127.667383,185.2085 127.327519,184.842046 L106.355928,162.183664 L104.480317,163.89563 L123.50077,184.43923 L104.618785,184.43923 L104.593609,186.956828 Z" id="Shape" fill="#243174" fill-rule="nonzero"></path>
                <path d="M104.593609,164.21033 L126.408596,164.21033 C126.910714,164.212079 127.365846,163.915254 127.566691,163.455051 C127.764696,162.994676 127.670756,162.460704 127.327519,162.095548 L106.355928,139.437166 L104.480317,141.149132 L123.50077,161.692732 L104.618785,161.692732 L104.593609,164.21033 Z" id="Shape" fill="#243174" fill-rule="nonzero"></path>
                <path d="M104.593609,141.514184 L126.408596,141.514184 C126.908389,141.512581 127.359893,141.215447 127.559075,140.757056 C127.758256,140.298666 127.667383,139.765855 127.327519,139.399402 L106.355928,116.74102 L104.480317,118.452986 L123.50077,138.996586 L104.618785,138.996586 L104.593609,141.514184 Z" id="Shape" fill="#243174" fill-rule="nonzero"></path>
                <path d="M104.593609,118.80545 L126.408596,118.80545 C126.910714,118.807199 127.365846,118.510373 127.566691,118.050171 C127.764696,117.589796 127.670756,117.055824 127.327519,116.690668 L106.355928,94.0322857 L104.480317,95.7442523 L123.525946,116.287852 L104.643961,116.287852 L104.593609,118.80545 Z" id="Shape" fill="#243174" fill-rule="nonzero"></path>
                <path d="M104.593609,96.109304 L126.408596,96.109304 C126.908389,96.107701 127.359893,95.8105669 127.559075,95.3521762 C127.758256,94.8937855 127.667383,94.3609753 127.327519,93.9945217 L106.355928,71.3361396 L104.480317,73.0103423 L123.525946,93.591706 L104.643961,93.591706 L104.593609,96.109304 Z" id="Shape" fill="#243174" fill-rule="nonzero"></path>
                <path d="M104.593609,73.40057 L126.408596,73.40057 C126.910714,73.4023185 127.365846,73.1054933 127.566691,72.6452906 C127.764696,72.1849158 127.670756,71.6509441 127.327519,71.2857877 L106.355928,48.6274056 L104.480317,50.3519602 L123.525946,70.882972 L104.643961,70.882972 L104.593609,73.40057 Z" id="Shape" fill="#243174" fill-rule="nonzero"></path>
                <rect id="Rectangle-path" fill="#243174" fill-rule="nonzero" transform="translate(123.463006, 57.023595) rotate(180.000000) translate(-123.463006, -57.023595) " x="103.498454" y="40.1934522" width="39.9291044" height="33.6602854"></rect>
                <rect id="Rectangle-path" fill="#243174" fill-rule="nonzero" transform="translate(63.468646, 49.861029) rotate(180.000000) translate(-63.468646, -49.861029) " x="43.5040936" y="40.1934522" width="39.9291044" height="19.3351527"></rect>
                <path d="M44.1712571,42.6481103 L241.374709,42.6481103 C242.069925,42.6481103 242.633508,42.0845268 242.633508,41.3893113 C242.633508,40.6940958 242.069925,40.1305123 241.374709,40.1305123 L44.1712571,40.1305123 C43.4760416,40.1305123 42.9124581,40.6940958 42.9124581,41.3893113 C42.9124581,42.0845268 43.4760416,42.6481103 44.1712571,42.6481103 Z" id="Shape" fill="#243174" fill-rule="nonzero"></path>
                <rect id="Rectangle-path" fill="#243174" fill-rule="nonzero" x="230.951853" y="47.2679026" width="1.25879901" height="81.8219353"></rect>
                <rect id="Rectangle-path" fill="#243174" fill-rule="nonzero" transform="translate(115.784332, 323.033001) rotate(180.000000) translate(-115.784332, -323.033001) " x="89.3999053" y="318.085921" width="52.7688543" height="9.89416018"></rect>
                <path d="M123.362302,42.3208225 C123.526035,42.3192511 123.683233,42.2563719 123.802882,42.1445907 L134.326442,31.621031 L230.72527,31.621031 L240.581666,41.5403672 C240.826404,41.7802583 241.218087,41.7802583 241.462825,41.5403672 C241.581978,41.422187 241.649,41.2613151 241.649,41.0934935 C241.649,40.925672 241.581978,40.7648001 241.462825,40.6466199 L231.216201,30.387408 L133.759982,30.387408 L122.883959,41.2760194 C122.707652,41.455839 122.655502,41.7234414 122.751387,41.9563049 C122.847272,42.1891683 123.072731,42.3424613 123.324539,42.3459985 L123.362302,42.3208225 Z" id="Shape" fill="#243174" fill-rule="nonzero"></path>
                <path d="M43.3278618,42.3208225 C43.5592654,42.3242727 43.7731289,42.1978988 43.8817333,41.9935348 L54.405293,21.8527507 L79.9337368,21.8527507 L89.827897,41.3263713 C89.9849798,41.6349741 90.3618458,41.7587212 90.6712923,41.6033071 C90.9744106,41.4415691 91.0964656,41.0698561 90.9482281,40.7599118 L80.7016042,20.6191277 L53.6500136,20.6191277 L42.7991662,41.4018993 C42.7195873,41.550248 42.7027541,41.7242935 42.7524282,41.8851431 C42.8021024,42.0459928 42.9141433,42.1802389 43.063514,42.2578826 C43.14539,42.2995339 43.2360008,42.3211079 43.3278618,42.3208225 Z" id="Shape" fill="#243174" fill-rule="nonzero"></path>
                <path d="M226.974049,47.2679026 C226.967139,49.8176845 229.027306,51.8909425 231.57708,51.9001839 C234.126855,51.9094253 236.201996,49.8511553 236.213569,47.3013903 C236.225142,44.7516254 234.16877,42.674603 231.619017,42.6606983 C230.39058,42.6506288 229.208995,43.1315804 228.336792,43.9966926 C227.464588,44.8618048 226.974007,46.0394248 226.974049,47.2679026 Z" id="Shape" fill="#F7F5EF" fill-rule="nonzero"></path>
                <path d="M204.303079,31.621031 C204.650686,31.669696 204.971929,31.4273551 205.020594,31.0797474 C205.069259,30.7321397 204.826918,30.4108971 204.47931,30.362232 L111.328184,1.93855047 C111.188968,1.8941952 111.039409,1.8941952 110.900192,1.93855047 L66.7163473,20.6317157 C66.5006344,20.7134554 66.3469206,20.9066515 66.3157447,21.1352155 C66.2845689,21.3637794 66.3809267,21.591085 66.5668685,21.72761 C66.7528103,21.8641349 66.9985399,21.8880017 67.2072789,21.7898108 L111.139364,3.23511344 L204.114259,31.583267 C204.174183,31.6078848 204.238295,31.6207072 204.303079,31.621031 Z" id="Shape" fill="#243174" fill-rule="nonzero"></path>
                <path d="M125.766609,42.4089385 C125.922047,42.4102772 126.076165,42.3803099 126.219776,42.3208225 C126.864902,42.0690543 127.185508,41.3434727 126.937292,40.6969718 L112.272283,2.08960635 C112.074747,1.57407941 111.56435,1.24742525 111.013484,1.28397499 C110.453412,1.32918045 109.991123,1.74010441 109.880565,2.29101419 L102.327771,39.9416924 C102.237826,40.391418 102.394639,40.8549668 102.73914,41.1577243 C103.083641,41.4604819 103.563493,41.5564522 103.997939,41.4094841 C104.432386,41.2625161 104.755424,40.8949376 104.845369,40.445212 L111.466652,7.06186242 L124.621101,41.6033071 C124.804529,42.079069 125.256847,42.3971829 125.766609,42.4089385 Z" id="Shape" fill="#243174" fill-rule="nonzero"></path>
                <path d="M108.558826,2.51759801 C108.558826,3.908029 109.685993,5.03519602 111.076424,5.03519602 C112.466855,5.03519602 113.594022,3.908029 113.594022,2.51759801 C113.594022,1.12716702 112.466855,8.51393429e-17 111.076424,0 C109.685993,-8.51393429e-17 108.558826,1.12716702 108.558826,2.51759801 Z" id="Shape" fill="#BCCCFD" fill-rule="nonzero"></path>
                <path d="M217.57082,42.4467025 C217.712619,42.4449125 217.849835,42.3962229 217.961048,42.3082346 L230.360218,32.3133705 L230.360218,41.6536591 C230.360218,42.0012668 230.64201,42.2830586 230.989617,42.2830586 C231.337225,42.2830586 231.619017,42.0012668 231.619017,41.6536591 L231.619017,30.9916315 C231.617181,30.7480852 231.474999,30.5274574 231.253965,30.425172 C231.039479,30.3219319 230.784729,30.3513262 230.59939,30.5006999 L217.205768,41.3263713 C217.075021,41.430046 216.991856,41.5822702 216.975253,41.7483052 C216.958649,41.9143402 217.010024,42.0800183 217.117652,42.2075306 C217.228966,42.3466955 217.393116,42.4333304 217.57082,42.4467025 Z" id="Shape" fill="#243174" fill-rule="nonzero"></path>
                <path d="M205.612229,42.4467025 C205.754029,42.4449125 205.891245,42.3962229 206.002457,42.3082346 L218.363863,32.3133705 L218.363863,41.6536591 C218.363863,42.0012668 218.645655,42.2830586 218.993263,42.2830586 C219.340871,42.2830586 219.622662,42.0012668 219.622662,41.6536591 L219.622662,30.9916315 C219.621557,30.7508911 219.483223,30.5318707 219.266313,30.4274326 C219.049403,30.3229946 218.791921,30.3514367 218.603035,30.5006999 L205.184238,41.3263713 C204.914283,41.5425411 204.869313,41.9360266 205.083534,42.2075306 C205.211625,42.3668961 205.407967,42.4557173 205.612229,42.4467025 Z" id="Shape" fill="#243174" fill-rule="nonzero"></path>
                <path d="M193.653639,42.4467025 C193.799593,42.4467463 193.941375,42.3980087 194.056455,42.3082346 L206.443037,32.3133705 L206.443037,41.6536591 C206.443037,42.0012668 206.724829,42.2830586 207.072436,42.2830586 C207.420044,42.2830586 207.701836,42.0012668 207.701836,41.6536591 L207.701836,30.9916315 C207.7,30.7480852 207.557818,30.5274574 207.336784,30.425172 C207.117905,30.3227812 206.860071,30.3519699 206.669621,30.5006999 L193.288587,41.3263713 C193.15784,41.430046 193.074675,41.5822702 193.058072,41.7483052 C193.041468,41.9143402 193.092843,42.0800183 193.200471,42.2075306 C193.309699,42.3491953 193.475048,42.4364629 193.653639,42.4467025 Z" id="Shape" fill="#243174" fill-rule="nonzero"></path>
                <path d="M181.707636,42.4467025 C181.849435,42.4449125 181.986652,42.3962229 182.097864,42.3082346 L194.45927,32.3133705 L194.45927,41.6536591 C194.45927,42.0012668 194.741062,42.2830586 195.08867,42.2830586 C195.436278,42.2830586 195.718069,42.0012668 195.718069,41.6536591 L195.718069,30.9916315 C195.716963,30.7508911 195.57863,30.5318707 195.36172,30.4274326 C195.14481,30.3229946 194.887327,30.3514367 194.698442,30.5006999 L181.267057,41.3263713 C181.057353,41.4945563 180.97761,41.7773603 181.068562,42.0303219 C181.159515,42.2832836 181.401084,42.4505596 181.669872,42.4467025 L181.707636,42.4467025 Z" id="Shape" fill="#243174" fill-rule="nonzero"></path>
                <path d="M169.749046,42.4467025 C169.894685,42.4448941 170.035892,42.3963542 170.151862,42.3082346 L182.525856,32.3133705 L182.525856,41.6536591 C182.525856,42.0012668 182.807647,42.2830586 183.155255,42.2830586 C183.502863,42.2830586 183.784655,42.0012668 183.784655,41.6536591 L183.784655,30.9916315 C183.782819,30.7480852 183.640637,30.5274574 183.419603,30.425172 C183.200724,30.3227812 182.94289,30.3519699 182.75244,30.5006999 L169.371406,41.3263713 C169.16355,41.493121 169.08323,41.7726956 169.170883,42.0243431 C169.258535,42.2759907 169.495162,42.4451679 169.761634,42.4467025 L169.749046,42.4467025 Z" id="Shape" fill="#243174" fill-rule="nonzero"></path>
                <path d="M157.803043,42.4467025 C157.944842,42.4449125 158.082058,42.3962229 158.193271,42.3082346 L170.554677,32.3133705 L170.554677,41.6536591 C170.554677,42.0012668 170.836469,42.2830586 171.184077,42.2830586 C171.531684,42.2830586 171.813476,42.0012668 171.813476,41.6536591 L171.813476,30.9916315 C171.81237,30.7508911 171.674036,30.5318707 171.457127,30.4274326 C171.240217,30.3229946 170.982734,30.3514367 170.793849,30.5006999 L157.349876,41.3263713 C157.140172,41.4945563 157.060429,41.7773603 157.151381,42.0303219 C157.242334,42.2832836 157.483903,42.4505596 157.752691,42.4467025 L157.803043,42.4467025 Z" id="Shape" fill="#243174" fill-rule="nonzero"></path>
                <path d="M145.844453,42.4467025 C145.989791,42.443188 146.130487,42.3948235 146.247268,42.3082346 L158.608675,32.3133705 L158.608675,41.6536591 C158.608675,42.0012668 158.890466,42.2830586 159.238074,42.2830586 C159.585682,42.2830586 159.867474,42.0012668 159.867474,41.6536591 L159.867474,30.9916315 C159.865638,30.7480852 159.723456,30.5274574 159.502422,30.425172 C159.283543,30.3227812 159.025709,30.3519699 158.835258,30.5006999 L145.454225,41.3263713 C145.18427,41.5425411 145.139301,41.9360266 145.353521,42.2075306 C145.474507,42.3549688 145.65378,42.442307 145.844453,42.4467025 Z" id="Shape" fill="#243174" fill-rule="nonzero"></path>
                <path d="M133.89845,42.4467025 C134.040249,42.4449125 134.177465,42.3962229 134.288678,42.3082346 L146.650084,32.3133705 L146.650084,41.6536591 C146.650084,42.0012668 146.931876,42.2830586 147.279484,42.2830586 C147.627091,42.2830586 147.908883,42.0012668 147.908883,41.6536591 L147.908883,30.9916315 C147.907777,30.7508911 147.769443,30.5318707 147.552534,30.4274326 C147.335624,30.3229946 147.078141,30.3514367 146.889256,30.5006999 L133.495634,41.3263713 C133.28593,41.4945563 133.206188,41.7773603 133.29714,42.0303219 C133.388093,42.2832836 133.629662,42.4505596 133.89845,42.4467025 Z" id="Shape" fill="#243174" fill-rule="nonzero"></path>
                <path d="M63.229474,42.4467025 C63.4188758,42.4488939 63.5991931,42.3656705 63.7204056,42.2201186 L79.7700929,23.3381336 L79.7700929,41.716599 C79.7700929,42.0642068 80.0518847,42.3459985 80.3994925,42.3459985 C80.7471002,42.3459985 81.028892,42.0642068 81.028892,41.716599 L81.028892,21.5758149 C81.0287792,21.3108188 80.8626974,21.0742781 80.6134883,20.9841794 C80.3689753,20.8855877 80.0887663,20.9569136 79.9211488,21.1604113 L62.7511304,41.4144873 C62.5954441,41.6013848 62.5613904,41.8612626 62.6636661,42.0819628 C62.7659418,42.3026631 62.9862358,42.4446723 63.229474,42.4467025 Z" id="Shape" fill="#243174" fill-rule="nonzero"></path>
                <path d="M50.8806558,42.4467025 C51.0958803,42.4512672 51.2972785,42.3409777 51.4093514,42.1571787 L63.6448777,23.6528333 L63.6448777,41.6536591 C63.6448777,42.0012668 63.9266695,42.2830586 64.2742772,42.2830586 C64.6218849,42.2830586 64.9036767,42.0012668 64.9036767,41.6536591 L64.9036767,21.512875 C64.9086401,21.2317842 64.7265864,20.9814885 64.4576323,20.8996329 C64.1886781,20.8177773 63.8980536,20.9242144 63.7455816,21.1604113 L50.3519602,41.4648392 C50.1610865,41.7575688 50.2394126,42.1491996 50.5281921,42.3459985 C50.6339727,42.4118176 50.7560697,42.4467025 50.8806558,42.4467025 Z" id="Shape" fill="#243174" fill-rule="nonzero"></path>
                <path d="M227.628624,130.776629 C227.628632,132.381553 228.596094,133.828205 230.07934,134.4412 C231.562586,135.054196 233.26908,134.712635 234.402127,133.575979 C235.535174,132.439324 235.871307,130.731753 235.253598,129.250463 C234.63589,127.769174 233.186169,126.806317 231.581253,126.811412 C229.396242,126.818348 227.628613,128.591606 227.628624,130.776629 Z" id="Shape" fill="#1F1F89" fill-rule="nonzero"></path>
                <path d="M66.7163473,328.92418 L162.385072,328.92418" id="Shape" stroke="#0A5DE2" stroke-width="2" opacity="0.5" stroke-linecap="round"></path>
                <polygon id="Shape" fill="#E67437" fill-rule="nonzero" points="464.950001 369.621152 463.527558 349.895771 465.730456 335.369231 473.22031 292.557477 469.607557 292.041369 461.324659 329.792751 448.396794 330.837555 434.95282 292.557477 431.327479 293.073584 441.158699 333.9342 444.607809 349.555896 444.204993 368.588937"></polygon>
                <polygon id="Shape" fill="#1F1F89" fill-rule="nonzero" points="447.125407 316.864886 445.85402 328.156313 453.532694 328.760536 458.228014 316.864886"></polygon>
                <path d="M461.299483,320.993746 C461.304577,324.13626 459.415492,326.972175 456.513648,328.178293 C453.611804,329.384412 450.269107,328.723029 448.04521,326.502736 C445.821313,324.282444 445.154509,320.940823 446.355919,318.037027 C447.557329,315.133231 450.390176,313.239549 453.532694,313.239544 C455.591416,313.236202 457.566963,314.051685 459.023882,315.506242 C460.4808,316.9608 461.299486,318.935021 461.299483,320.993746 Z" id="Shape" fill="#F7F5EF" fill-rule="nonzero"></path>
                <rect id="Rectangle-path" fill="#243174" fill-rule="nonzero" x="428.444829" y="244.848994" width="48.7532855" height="48.7532855" rx="7.4"></rect>
                <path d="M456.390167,320.490227 C456.531537,320.582494 456.70559,320.609976 456.868511,320.565755 C457.032155,320.565755 457.107683,320.339171 457.208387,320.213291 C457.696293,319.741677 458.470211,319.741677 458.958117,320.213291 C459.416034,320.717708 459.497328,321.459518 459.159525,322.051137 C458.801048,322.621937 458.20466,323.001036 457.535674,323.083353 C457.10697,324.622402 456.932637,326.221162 457.019567,327.816437 L460.216916,328.055609 C460.419829,328.093404 460.62957,328.057703 460.808552,327.954905 C460.953016,327.819632 461.042634,327.635917 461.060312,327.438797 C461.464574,325.607803 461.663017,323.737376 461.651947,321.862318 C461.749461,320.031859 461.349253,318.209176 460.493852,316.58795 C459.373521,314.724927 454.753729,311.653458 452.500478,313.378012 C450.008056,315.215859 454.665613,319.659419 456.390167,320.490227 Z" id="Shape" fill="#1F1F89" fill-rule="nonzero"></path>
                <path d="M449.957704,317.821573 C448.68458,319.170687 446.959496,320.004104 445.111328,320.162939 C445.035276,318.081671 445.905311,316.077813 447.47787,314.712339 C448.35903,313.95706 451.254267,312.295445 452.513066,313.101077 C453.771865,313.906708 450.851452,316.953001 449.957704,317.821573 Z" id="Shape" fill="#1F1F89" fill-rule="nonzero"></path>
                <polygon id="Shape" fill="#0A5DE2" fill-rule="nonzero" points="464.194721 355.623307 444.406401 354.704384 429.187521 422.86835 422.138246 418.563257 430.723256 429.011289 450.98992 372.818501 450.687808 398.309181 464.421305 416.511415 465.302464 423.082346 465.667516 425.876879 468.109586 425.574768 468.562754 415.567316 457.925902 398.271417 465.428344 369.646328"></polygon>
                <polygon id="Shape" fill="#F7F5EF" fill-rule="nonzero" points="465.440932 311.024058 469.720849 312.522029 473.22031 292.557477 469.607557 292.041369"></polygon>
                <polygon id="Shape" fill="#F7F5EF" fill-rule="nonzero" points="440.504124 308.355404 435.481516 310.344307 431.327479 293.073584 434.95282 292.557477"></polygon>
                <polygon id="Shape" fill="#E67437" fill-rule="nonzero" points="457.283915 330.120039 453.570457 336.716146 451.694847 330.573207"></polygon>
                <path d="M429.703628,290.493046 C429.703628,292.210229 431.09568,293.60228 432.812862,293.60228 C434.530044,293.60228 435.922095,292.210229 435.922095,290.493046 C435.922095,288.775864 434.530044,287.383813 432.812862,287.383813 C431.09568,287.383813 429.703628,288.775864 429.703628,290.493046 Z" id="Shape" fill="#F7F5EF" fill-rule="nonzero"></path>
                <path d="M468.663458,291.072094 C468.663458,292.789276 470.055509,294.181327 471.772691,294.181327 C473.489873,294.181327 474.881925,292.789276 474.881925,291.072094 C474.881925,289.354912 473.489873,287.96286 471.772691,287.96286 C470.948071,287.96286 470.157225,288.290439 469.574131,288.873534 C468.991037,289.456628 468.663458,290.247474 468.663458,291.072094 Z" id="Shape" fill="#F7F5EF" fill-rule="nonzero"></path>
                <path d="M445.41344,388.276553 L450.196876,375.0214 L450.650044,370.817011 L444.356049,354.704384 L437.747354,384.311336 C440.579652,385.821895 443.386774,387.244338 445.41344,388.276553 Z" id="Shape" fill="url(#linearGradient-3)" fill-rule="nonzero"></path>
                <path d="M459.083997,260.923858 C459.083997,264.4486 456.226629,267.305969 452.701886,267.305969 C449.177144,267.305969 446.319775,264.4486 446.319775,260.923858 C446.319775,257.399115 449.177144,254.541747 452.701886,254.541747 C456.226629,254.541747 459.083997,257.399115 459.083997,260.923858 Z" id="Shape" fill="#F7F5EF" fill-rule="nonzero"></path>
                <path d="M465.252112,280.284186 C465.252112,273.533644 459.779716,268.061248 453.029174,268.061248 C446.278631,268.061248 440.806236,273.533644 440.806236,280.284186 L465.252112,280.284186 Z" id="Shape" fill="#F7F5EF" fill-rule="nonzero"></path>
                <path d="M404.238124,427.739902 L499.906849,427.739902" id="Shape" stroke="#0A5DE2" stroke-width="2" opacity="0.5" stroke-linecap="round"></path>
                <path d="M275.840626,338.994572 L371.50935,338.994572" id="Shape" stroke="#0A5DE2" stroke-width="2" opacity="0.5" stroke-linecap="round"></path>
                <rect id="Rectangle-path" fill="#243174" fill-rule="nonzero" x="137.662259" y="183.167843" width="48.7532855" height="48.7532855" rx="7.4"></rect>
                <polygon id="Shape" fill="#F7F5EF" fill-rule="nonzero" points="149.331326 311.049234 145.668221 273.285264 140.947725 232.902992 144.61083 232.374296 153.007019 270.666962 166.111117 271.711765 179.756498 232.902992 183.419603 233.431687 173.462503 274.858763 173.97861 310.004431"></polygon>
                <path d="M146.713024,230.813386 C146.713024,232.551424 145.304065,233.960383 143.566027,233.960383 C141.827988,233.960383 140.419029,232.551424 140.419029,230.813386 C140.419029,229.075347 141.827988,227.666388 143.566027,227.666388 C145.304065,227.666388 146.713024,229.075347 146.713024,230.813386 Z" id="Shape" fill="#E67437" fill-rule="nonzero"></path>
                <path d="M183.419603,231.858189 C183.419603,233.596227 182.010644,235.005186 180.272606,235.005186 C178.534567,235.005186 177.125608,233.596227 177.125608,231.858189 C177.125608,230.12015 178.534567,228.711191 180.272606,228.711191 C182.010644,228.711191 183.419603,230.12015 183.419603,231.858189 Z" id="Shape" fill="#E67437" fill-rule="nonzero"></path>
                <path d="M167.860847,259.186715 C167.86594,262.425965 165.918583,265.34909 162.927367,266.592228 C159.936151,267.835366 156.490581,267.153521 154.198282,264.864825 C151.905982,262.57613 151.218715,259.131637 152.457145,256.138469 C153.695574,253.1453 156.615632,251.193345 159.854886,251.193341 C164.271545,251.193336 167.853903,254.770061 167.860847,259.186715 Z" id="Shape" fill="#E67437" fill-rule="nonzero"></path>
                <path d="M167.860847,260.445514 C167.86594,263.684764 165.918583,266.607889 162.927367,267.851027 C159.936151,269.094165 156.490581,268.41232 154.198282,266.123624 C151.905982,263.834929 151.218715,260.390436 152.457145,257.397268 C153.695574,254.404099 156.615632,252.452144 159.854886,252.45214 C164.271545,252.452135 167.853903,256.02886 167.860847,260.445514 Z" id="Shape" fill="#1F1F89" fill-rule="nonzero"></path>
                <polygon id="Shape" fill="#243174" fill-rule="nonzero" points="173.97861 310.004431 170.340681 367.921773 166.337701 367.921773 162.938943 310.470187 159.351366 310.621242 157.173644 369.331628 154.076998 369.268688 149.331326 311.049234 148.638987 303.87408 173.890495 304.201368"></polygon>
                <polygon id="Shape" fill="#3878FF" fill-rule="nonzero" points="170.340681 367.921773 179.152274 368.891048 178.837575 370.250551 165.934885 370.250551 166.337701 367.921773"></polygon>
                <polygon id="Shape" fill="#3878FF" fill-rule="nonzero" points="157.173644 369.331628 157.173644 370.980655 145.063997 371.433822 145.063997 369.923264 154.076998 369.268688"></polygon>
                <path d="M131.07874,371.093947 L201.571485,371.093947" id="Shape" stroke="#0A5DE2" stroke-width="2" opacity="0.5" stroke-linecap="round"></path>
                <path d="M268.665472,384.991088 C268.678589,385.08715 268.678589,385.184549 268.665472,385.280611 C268.665472,385.280611 268.665472,385.280611 268.665472,385.356139 C268.641588,385.433688 268.612139,385.509413 268.577356,385.582723 L268.388536,385.847071 L268.388536,385.910011 L268.149364,386.149183 C268.040617,386.239071 267.927165,386.32311 267.809488,386.400943 L267.696196,386.463883 C267.595865,386.534141 267.490704,386.597237 267.381497,386.652702 L267.243029,386.72823 L266.852801,386.91705 L266.701745,386.97999 L266.072346,387.219162 L244.609823,394.658664 L243.955247,394.834896 C243.640547,394.923012 243.338436,395.023716 242.99856,395.099244 C242.658684,395.174772 242.155165,395.262888 241.739761,395.325828 C241.324357,395.388767 241.198477,395.401355 240.921542,395.439119 L239.901914,395.539823 L239.700507,395.539823 C239.146635,395.539823 238.592763,395.602763 238.026304,395.602763 C237.447256,395.602763 236.855621,395.602763 236.289161,395.602763 C235.710114,395.602763 235.143654,395.514647 234.589783,395.439119 C234.048499,395.363592 233.532391,395.262888 233.04146,395.162184 C232.555828,395.055379 232.076702,394.920888 231.606429,394.759368 L210.471194,387.521274 L210.131318,387.395394 L209.841794,387.282102 L209.55227,387.156222 L209.287923,387.030342 L209.073927,386.904462 L208.834755,386.765994 L208.658523,386.627526 L208.457115,386.476471 L208.306059,386.338003 L208.167591,386.199535 L208.029124,386.010715 L207.953596,385.897423 L207.953596,385.746367 C207.890435,385.603442 207.856209,385.449423 207.852892,385.293199 L207.92842,394.74678 C207.931736,394.903003 207.965963,395.057023 208.029124,395.199948 L208.029124,395.351004 L208.104652,395.464295 L208.243119,395.653115 L208.368999,395.766407 L208.532643,395.942639 L208.671111,396.043343 L208.910283,396.219575 L209.086515,396.320279 C209.179891,396.38019 209.276551,396.434824 209.376039,396.483923 L209.564858,396.572039 L209.917322,396.735682 L210.156494,396.836386 L210.534134,396.974854 L231.669369,404.212949 C231.912114,404.303451 232.160135,404.379118 232.41206,404.439532 L233.054048,404.603176 L232.877816,404.603176 L233.381336,404.70388 L233.947795,404.804584 L234.426139,404.880112 L234.514255,404.880112 L235.068126,404.943052 L235.634586,404.943052 L236.163281,404.943052 L236.754917,404.943052 L238.617939,404.943052 L239.322867,404.943052 L239.599803,404.943052 L239.80121,404.943052 L240.204026,404.943052 L240.820838,404.867524 L241.639057,404.76682 L241.865641,404.76682 L242.784564,404.590588 L242.897856,404.590588 C243.25032,404.51506 243.565019,404.414356 243.879719,404.32624 L244.383239,404.187773 L244.521707,404.187773 L265.98423,396.760858 C266.198226,396.68533 266.399633,396.609803 266.588453,396.521687 L266.739509,396.458747 L267.066797,396.307691 L267.129737,396.307691 L267.268205,396.232163 L267.457025,396.131459 L267.582905,396.043343 L267.696196,396.043343 L267.771724,396.043343 L268.023484,395.854523 L268.187128,395.703467 L268.262656,395.615351 L268.262656,395.552411 L268.401124,395.351004 L268.401124,395.225124 C268.401124,395.225124 268.401124,395.149596 268.401124,395.12442 L268.401124,395.048892 C268.407314,394.973491 268.407314,394.897709 268.401124,394.822308 L268.665472,384.991088 Z" id="Shape" fill="#80392E" fill-rule="nonzero"></path>
                <path d="M265.996818,382.775601 C269.596983,384.0344 269.546631,386.048479 265.883526,387.307278 L244.421003,394.74678 C240.120459,395.99304 235.554509,395.99304 231.253965,394.74678 L210.11873,387.508686 C206.505977,386.249887 206.543741,384.235808 210.206846,382.977009 L231.606429,375.537507 C235.9113,374.291575 240.481184,374.291575 244.786055,375.537507 L265.996818,382.775601 Z" id="Shape" fill="#E67437" fill-rule="nonzero"></path>
                <path d="M351.872086,376.89701 C351.884374,376.988913 351.884374,377.082043 351.872086,377.173946 C351.877544,377.198826 351.877544,377.224594 351.872086,377.249474 C351.848202,377.327023 351.818754,377.402747 351.78397,377.476058 C351.78397,377.476058 351.78397,377.476058 351.78397,377.476058 C351.729488,377.569919 351.666268,377.658427 351.59515,377.740405 L351.59515,377.803345 C351.517472,377.889392 351.433305,377.969351 351.34339,378.042517 C351.234643,378.132405 351.121191,378.216444 351.003515,378.294277 L350.902811,378.369805 L350.575523,378.558625 L350.437055,378.621565 L350.046827,378.810385 L349.895771,378.885913 L349.266372,379.125084 L327.803849,386.551998 L327.161861,386.72823 C326.847162,386.828934 326.532462,386.91705 326.192586,386.992578 L324.933787,387.23175 L324.115568,387.332454 L323.095941,387.433158 L322.894533,387.433158 C322.340661,387.433158 321.78679,387.433158 321.22033,387.496098 C320.641283,387.496098 320.049647,387.496098 319.483187,387.496098 C318.90414,387.496098 318.33768,387.407982 317.796397,387.332454 C317.267701,387.256926 316.739006,387.16881 316.248074,387.055518 C315.762845,386.947107 315.283808,386.81264 314.813043,386.652702 L293.300168,379.452372 L292.960292,379.326492 L292.670769,379.2132 L292.393833,379.08732 L292.129485,378.96144 L291.902901,378.835561 L291.663729,378.697093 L291.487498,378.558625 L291.28609,378.420157 L291.135034,378.269101 L290.996566,378.130633 L290.870686,377.941813 L290.78257,377.828521 L290.78257,377.639702 C290.71941,377.496777 290.685183,377.342757 290.681866,377.186534 L290.757394,386.640114 C290.759322,386.796502 290.79361,386.950797 290.858098,387.093282 L290.921038,387.244338 L291.009154,387.35763 C291.046694,387.423407 291.088755,387.486498 291.135034,387.54645 L291.260914,387.659742 L291.424558,387.835973 L291.563026,387.936677 L291.802197,388.112909 L291.978429,388.213613 L292.267953,388.377257 C292.327129,388.4141 292.390525,388.443684 292.456773,388.465373 L292.809237,388.629017 L293.048408,388.729721 L293.426048,388.868189 L314.561283,396.106283 C314.804029,396.196785 315.05205,396.272453 315.303975,396.332867 L315.945962,396.496511 L316.046666,396.496511 L316.550186,396.597215 L317.129233,396.697918 L317.594989,396.773446 L317.683105,396.773446 L318.249564,396.836386 L318.803436,396.836386 L319.332132,396.836386 L319.923767,396.836386 L321.78679,396.836386 L322.491717,396.836386 L322.768653,396.836386 L322.982649,396.836386 L323.372876,396.836386 C323.586872,396.836386 323.78828,396.836386 323.989688,396.760858 L324.807907,396.660154 L325.047079,396.660154 L326.028942,396.521687 L326.154822,396.521687 C326.494698,396.446159 326.809398,396.358043 327.124097,396.257339 C327.438797,396.156635 327.476561,396.181811 327.627617,396.118871 L327.766085,396.118871 L349.228608,388.691957 L349.832831,388.465373 L349.996475,388.389845 L350.311175,388.238789 L350.374115,388.238789 L350.512583,388.163261 L350.701403,388.062557 L350.839871,387.974441 L350.940575,387.898913 L351.016103,387.898913 L351.267862,387.697506 L351.431506,387.559038 L351.519622,387.458334 C351.519622,387.458334 351.519622,387.458334 351.519622,387.458334 C351.572829,387.396328 351.619249,387.328808 351.65809,387.256926 C351.65809,387.256926 351.65809,387.16881 351.65809,387.131046 C351.663724,387.097714 351.663724,387.063674 351.65809,387.030342 C351.663548,387.005462 351.663548,386.979694 351.65809,386.954814 C351.66428,386.879413 351.66428,386.803631 351.65809,386.72823 L351.872086,376.89701 Z" id="Shape" fill="#243174" fill-rule="nonzero"></path>
                <path d="M349.203432,374.668936 C352.803597,375.927735 352.753245,377.941813 349.09014,379.2132 L327.627617,386.640114 C323.327073,387.886375 318.761123,387.886375 314.460579,386.640114 L293.300168,379.452372 C289.687415,378.193573 289.725179,376.179495 293.388284,374.920696 L314.787867,367.493782 C319.090105,366.220695 323.665891,366.198864 327.980081,367.430842 L349.203432,374.668936 Z" id="Shape" fill="#3878FF" fill-rule="nonzero"></path>
            </g>
        </g>
    </g>
</svg>